<svg width="256" height="256" xmlns="http://www.w3.org/2000/svg">
 <g>
  <title>background</title>
  <rect x="-1" y="-1" width="258" height="258" id="canvas_background" fill="none"/>
 </g>

 <g class="layer">
  <title>Layer 1</title>
  <g fill="#ffffff" id="SvgjsG1007"/>
  <g fill="#ffffff" id="SvgjsG1008" transform="translate(81.80490112304688,-14.597100257873535) scale(0.8999999761581421) ">
   <g fill="#ffffff" id="svg_2"/>
  </g>
  <g id="svg_4">
   <path d="m37.08888,193.23424l0,-42.7c0,-2.11 0.3,-3.86 -1.67,-3.93c-2.25,-0.07 -5.02,-0.07 -8.29,0c-2.18,0 -1.97,1.53 -2.55,4.8c-0.29,1.31 -0.43,2.33 -0.58,3.13c-0.51,2.33 -1.09,5.53 -1.82,9.39l-1.74,9.45c0,0.29 -0.08,0.44 -0.15,0.59c-0.51,1.16 -1.53,1.01 -1.82,0.14c-0.29,-0.87 -0.51,-1.53 -0.58,-1.89l-3.78,-19.13l-1.02,-5.02c-0.22,-0.95 -0.8,-1.46 -1.6,-1.46l-8.88,0c-1.82,0.07 -1.6,1.89 -1.6,4l0,42.71c0,2.4 -0.22,3.92 1.53,4.14c1.82,0.15 3.64,0.15 5.38,0c1.82,-0.29 1.68,-2.03 1.68,-4.07l0,-12.37c0,-1.23 0.14,-2.11 0.36,-2.54c0.07,-0.3 0.8,-0.59 1.09,0c0.36,0.8 0.58,1.38 0.73,1.81c0.44,1.9 1.09,4.51 1.82,7.86c0.29,1.02 1.38,5.6 1.82,7.49c0.29,1.39 0.72,1.75 2.18,1.82c2.04,0.15 4.29,0.08 4.87,-0.43c0.29,-0.29 0.58,-0.88 0.8,-1.68c0.29,-1.31 0.73,-3.13 1.24,-5.6l1.53,-7.56c0.22,-1.1 0.51,-1.82 0.8,-2.19c0.14,-0.14 0.29,-0.21 0.51,-0.21c0.21,0 0.36,0.07 0.43,0.29c0.44,1.09 0.73,2.47 0.73,4.22l0,9.45c0,1.82 -0.15,3.49 1.31,3.64c1.96,0.22 3.86,0.22 5.75,0c1.67,-0.22 1.52,-2.11 1.52,-4.15zm29.39,-21.09c0,18.62 0.95,18.33 -3.27,22.62c-4.29,4.22 -11.42,4.07 -15.42,1.17c-1.97,-1.39 -3.42,-3.35 -4.29,-5.9c-0.88,-2.47 -0.73,-5.53 1.16,-5.67l5.38,0c1.46,0.07 2.19,3.05 2.04,2.76c0.58,1.6 2.69,2.91 4.37,1.6c1.01,-0.72 1.6,-1.67 1.81,-2.83c0.3,-1.97 0.3,-4.01 0,-5.97c-0.21,-1.38 -1.01,-1.96 -2.4,-1.67c-1.6,0.22 -2.91,0.36 -4,0.29c-4.22,-0.22 -6.91,-2.4 -8.15,-6.4c-0.43,-1.53 -0.72,-2.91 -0.72,-4.22c0.07,-14.33 -2.04,-18.04 7.49,-21.25c6.98,-2.4 13.53,0.73 15.71,7.79c0.15,0.51 0.22,1.6 0.29,3.05l0,14.63zm-14.84,-9.24c0,4.51 -0.21,5.09 0.88,6.91c1.16,1.89 4.29,1.74 5.09,-0.37c0.22,-0.5 0.36,-1.01 0.51,-1.6c0.36,-2.47 0.44,-5.52 0.07,-9.38c0,-0.65 -0.51,-2.4 -1.96,-3.27c-2.26,-1.31 -4.44,1.16 -4.59,3.71l0,4zm58.49,10.18c-1.31,-1.53 -2.11,-2.25 -3.42,-3.42l0.8,-1.45c0.51,-0.8 -0.07,-1.75 -1.01,-1.75l-3.5,0c-0.51,-0.58 -1.52,-1.6 -1.74,-1.89c-2.18,-2.47 -3.06,-5.09 -2.69,-7.86c0.51,-4.07 4.94,-4.87 6.69,-1.01l0.73,1.89c0.29,0.8 0.87,1.16 1.74,1.16c1.75,0 3.64,-0.36 5.6,-1.02c0.73,-0.29 1.1,-0.72 0.95,-1.6c-0.73,-6.11 -5.53,-13.24 -16.22,-10.55c-4.66,1.17 -8.22,5.24 -8.66,10.92c-0.36,4.87 1.24,9.31 4.73,13.09l2.04,2.04l-1.17,2.03c-0.43,0.8 0.15,1.82 1.09,1.75l3.93,0l0.66,0.65c3.78,3.86 5.31,4.52 5.23,8.81c0,1.96 -1.45,3.85 -3.2,4.29c-1.82,0.44 -3.27,-0.36 -4.43,-2.4c-0.37,-0.73 -0.51,-1.17 -0.73,-2.04c-0.07,-0.51 -0.22,-0.8 -0.22,-0.94c-0.44,-1.53 -0.95,-1.97 -2.4,-1.9c-0.8,0 -2.47,0.22 -4.88,0.59c-1.52,0.21 -1.3,2.03 -1.16,3.12c0.36,2.41 1.38,4.95 3.13,7.64c0.58,0.88 1.53,1.68 2.76,2.48c2.04,1.23 4.44,1.82 7.21,1.67c4.94,-0.29 6.32,0.22 9.6,-3.64c1.6,-1.89 2.62,-4 2.91,-6.33c0.73,-5.31 -0.66,-10.11 -4.37,-14.33zm34.63,-23.2c0,-3.42 -0.14,-3.42 -3.56,-3.42l-17.46,0c-1.68,0 -2.55,-0.15 -3.13,0.36c-0.22,0.22 -0.44,0.66 -0.44,1.24c-0.07,1.67 -0.07,3.34 0,4.87c0.08,1.46 0.58,1.82 2.04,1.89c0.29,0.08 0.87,0.08 1.67,0.08c1.46,0 2.91,0 3.64,0.8c0.65,0.72 0.65,1.67 0.65,4.14l0,33.54c0,2.18 -0.29,3.93 1.61,4c1.74,0.07 3.56,0.07 5.45,0c1.75,-0.15 1.53,-1.82 1.53,-4.44l0,-32.37c0,-2.84 -0.07,-4.07 0.8,-4.87c0.87,-0.88 2.4,-0.8 3.85,-0.8c1.31,0 2.33,0 2.91,-0.51c0.22,-0.29 0.37,-0.73 0.37,-1.39c0.07,-0.58 0.07,-1.67 0.07,-3.12zm31.43,35.57l0,-34.99c0,-1.97 0.14,-3.79 -1.46,-3.93c-1.02,-0.07 -2.18,-0.07 -3.42,-0.07c-3.63,0 -3.71,0.07 -3.71,3.63l0,32.16c0,3.34 -0.51,6.55 -3.78,7.13c-2.62,0.36 -4.07,-2.33 -4.15,-4.22c-0.07,-0.8 -0.07,-1.75 -0.07,-2.84l0,-31.28c0,-2.69 0.29,-4.37 -1.67,-4.51c-1.46,-0.15 -5.6,-0.22 -6.4,0.51c-0.37,0.36 -0.51,1.45 -0.51,3.2l0,33.83c0,1.67 0.29,3.78 0.87,6.25c0.29,1.02 0.8,1.97 1.38,2.84c3.93,5.09 9.9,6.11 16.01,4c0.43,-0.14 0.87,-0.36 1.23,-0.73c3.86,-3.05 5.82,-6.69 5.68,-10.98zm20.73,-39.28c0,0 0,0 0,0zm6.69,2.76c-1.81,-1.89 -4.07,-2.76 -6.69,-2.76c-0.14,0 -3.56,0 -10.33,0.07c-1.38,0 -2.98,-0.15 -3.2,1.6c0,0.58 -0.07,1.45 -0.07,2.55l0,42.48c0,2.62 0,3.49 0.58,4.07c0.22,0.22 0.73,0.44 1.45,0.44l0.3,0c13.16,0 15.93,1.24 20.51,-5.6c1.24,-1.97 1.89,-4.22 1.89,-6.84l0,-26.7c0,-3.27 -0.87,-5.67 -4.44,-9.31zm-4.14,35.86c0,2.84 -3.42,4.73 -6.19,3.71c-1.38,-0.58 -1.31,-2.03 -1.31,-3.78l0,-26.7c-0.07,-2.69 0.8,-3.34 3.57,-3.12c2.33,0.14 3.64,1.38 3.85,3.78c0.08,0.36 0.08,1.02 0.08,1.96l0,24.15zm24.08,8.88l0,-43.07c0,-2.47 0.29,-4.07 -1.68,-4.29c-1.38,-0.07 -5.74,-0.22 -6.47,0.51c-0.29,0.29 -0.44,1.38 -0.44,3.13l0,43.36c0,2.03 -0.22,3.85 1.75,4c0.73,0.07 1.74,0.07 3.13,0.07c3.56,0 3.71,-0.07 3.71,-3.71zm31.06,-10.04l-0.07,-24.08c0,-3.85 -0.95,-8 -4,-10.84c-3.06,-2.91 -6.7,-3.71 -12.44,-2.84c-0.95,0.15 -1.75,0.51 -2.62,1.17c-4.22,3.05 -6.26,6.69 -6.11,10.98l0,27.28c0,2.33 0.36,4.22 1.23,5.82c4.66,8.73 16.74,9.32 22.48,0.08c0.37,-0.66 0.66,-1.24 0.73,-1.89c0.58,-2.99 0.8,-4.88 0.8,-5.68zm-9.6,2.98c-1.31,2.91 -5.53,2.84 -6.7,-0.14c-0.29,-0.58 -0.36,-1.68 -0.36,-3.13l0,-23.72c0,-1.16 0,-1.89 0.07,-2.32c0.51,-3.71 5.9,-4.15 7.06,-0.59c0.22,0.73 0.36,1.53 0.36,2.55l0,24.59c0,1.16 -0.14,2.11 -0.43,2.76z" fill="#ffffff" id="svg_1" stroke="#ffffff"/>
   <path clip-rule="evenodd" d="m172.86768,104.802c-0.463,-4.392 -2.404,-23.876 -3.162,-30.789c-1.024,-9.364 -8.803,-16.388 -18.145,-16.396c-4.362,-0.003 -8.259,1.397 -11.664,4.149c-0.326,0.264 -0.784,0.61 -1.131,0.563c-2.898,-0.41 -5.785,-0.904 -8.787,-1.391l0,-4.404c0,0 -0.043,-1.534 -1.726,-1.534l-8.452,0c-1.683,0 -1.726,1.534 -1.726,1.534l0,4.404c-3.002,0.486 -5.89,0.98 -8.787,1.391c-0.347,0.047 -0.805,-0.3 -1.131,-0.563c-3.405,-2.752 -7.302,-4.152 -11.664,-4.149c-9.342,0.008 -17.12,7.031 -18.146,16.396c-0.756,6.914 -2.697,26.398 -3.16,30.789c-0.684,6.49 0.168,15.237 8.461,17.224c7.706,1.847 14.438,-1.227 18.677,-7.203c2.584,-3.644 5.415,-7.114 8.177,-10.631c0.263,-0.336 0.819,-0.625 1.241,-0.627l24.568,0c0.423,0.002 0.979,0.291 1.242,0.627c2.762,3.517 5.593,6.987 8.177,10.631c4.239,5.977 10.971,9.05 18.677,7.203c8.293,-1.987 9.145,-10.734 8.461,-17.224zm-62.34,-16.792c0,0.461 -0.374,0.836 -0.836,0.836l-6.267,0l0,6.267c0,0.461 -0.375,0.835 -0.836,0.835l-4.457,0c-0.461,0 -0.836,-0.374 -0.836,-0.835l0,-6.267l-6.267,0c-0.462,0 -0.836,-0.375 -0.836,-0.836l0,-4.457c0,-0.461 0.374,-0.836 0.836,-0.836l6.267,0l0,-6.267c0,-0.462 0.375,-0.835 0.836,-0.835l4.457,0c0.461,0 0.836,0.374 0.836,0.835l0,6.267l6.267,0c0.462,0 0.836,0.375 0.836,0.836l0,4.457zm33.125,-0.199c0,0.536 -0.354,0.97 -0.793,0.97l-4.414,0c-0.438,0 -0.793,-0.434 -0.793,-0.97l0,-4.06c0,-0.536 0.354,-0.97 0.793,-0.97l4.414,0c0.438,0 0.793,0.434 0.793,0.97l0,4.06zm8.188,8.365c0,0.438 -0.434,0.793 -0.97,0.793l-4.061,0c-0.536,0 -0.97,-0.354 -0.97,-0.793l0,-4.415c0,-0.438 0.434,-0.793 0.97,-0.793l4.061,0c0.536,0 0.97,0.354 0.97,0.793l0,4.415zm0,-16.375c0,0.438 -0.434,0.793 -0.97,0.793l-4.061,0c-0.536,0 -0.97,-0.354 -0.97,-0.793l0,-4.414c0,-0.438 0.434,-0.793 0.97,-0.793l4.061,0c0.536,0 0.97,0.354 0.97,0.793l0,4.414zm8.187,8.01c0,0.536 -0.354,0.97 -0.793,0.97l-4.414,0c-0.439,0 -0.793,-0.434 -0.793,-0.97l0,-4.06c0,-0.536 0.354,-0.97 0.793,-0.97l4.414,0c0.439,0 0.793,0.434 0.793,0.97l0,4.06z" fill="#ffffff" fill-rule="evenodd" id="svg_3" stroke="#ffffff"/>
  </g>
 </g>
</svg>